<svg xmlns="http://www.w3.org/2000/svg" width="126" height="36" viewBox="0 0 126 36" role="img" aria-label="LinkedIn"><title>LinkedIn</title><rect x="3.5" y="0.5" width="119" height="35" rx="17.5" fill="#212830" stroke="#3d444d"/><g transform="translate(22.37 10)" fill="none" stroke="#9198a1" stroke-width="1.5" stroke-linecap="round" stroke-linejoin="round"><rect x="1.75" y="4.75" width="12.5" height="9" rx="1.5"/><path d="M5.75 4.75v-1.5a1 1 0 0 1 1-1h2.5a1 1 0 0 1 1 1v1.5"/><path d="M1.75 8.75h12.5"/></g><path fill="#f0f6fc" d="M47.4 23.09V12.91H49.22V21.55H53.72V23.09ZM55.23 23.09V15.45H57.01V23.09ZM56.12 14.37Q55.7 14.37 55.39 14.08Q55.09 13.8 55.09 13.4Q55.09 12.99 55.39 12.71Q55.7 12.42 56.12 12.42Q56.55 12.42 56.85 12.71Q57.16 12.99 57.16 13.39Q57.16 13.8 56.85 14.08Q56.55 14.37 56.12 14.37ZM60.67 18.62V23.09H58.89V15.45H60.58L60.6 17.34H60.46Q60.78 16.35 61.4 15.85Q62.03 15.35 62.96 15.35Q63.75 15.35 64.34 15.69Q64.92 16.02 65.25 16.67Q65.57 17.31 65.57 18.23V23.09H63.8V18.51Q63.8 17.74 63.4 17.3Q63 16.87 62.31 16.87Q61.83 16.87 61.46 17.07Q61.1 17.28 60.88 17.67Q60.67 18.06 60.67 18.62ZM69.09 20.69V18.53H69.37L72.12 15.45H74.21L70.83 19.22H70.46ZM67.46 23.09V12.91H69.24V23.09ZM72.25 23.09 69.75 19.61 70.95 18.36 74.38 23.09ZM78.49 23.25Q77.34 23.25 76.51 22.76Q75.68 22.28 75.23 21.4Q74.78 20.52 74.78 19.32Q74.78 18.14 75.22 17.25Q75.66 16.36 76.47 15.86Q77.28 15.35 78.38 15.35Q79.07 15.35 79.71 15.58Q80.34 15.81 80.83 16.28Q81.32 16.75 81.59 17.48Q81.87 18.21 81.87 19.21V19.77H75.62V18.56H80.99L80.15 18.92Q80.15 18.27 79.96 17.78Q79.76 17.3 79.36 17.02Q78.97 16.75 78.38 16.75Q77.8 16.75 77.39 17.03Q76.98 17.3 76.76 17.76Q76.54 18.23 76.54 18.79V19.63Q76.54 20.35 76.79 20.85Q77.04 21.35 77.48 21.6Q77.93 21.86 78.51 21.86Q78.9 21.86 79.22 21.74Q79.54 21.63 79.77 21.41Q80 21.19 80.12 20.86L81.75 21.2Q81.57 21.81 81.12 22.28Q80.68 22.74 80.01 22.99Q79.35 23.25 78.49 23.25ZM86.21 23.23Q85.31 23.23 84.59 22.77Q83.88 22.31 83.47 21.42Q83.06 20.54 83.06 19.29Q83.06 18.01 83.48 17.14Q83.9 16.26 84.61 15.81Q85.33 15.35 86.2 15.35Q86.89 15.35 87.32 15.58Q87.76 15.81 88.01 16.13Q88.27 16.44 88.4 16.71H88.47V12.91H90.25V23.09H88.51V21.88H88.4Q88.26 22.16 88 22.47Q87.74 22.79 87.3 23.01Q86.87 23.23 86.21 23.23ZM86.7 21.77Q87.28 21.77 87.68 21.46Q88.08 21.14 88.3 20.58Q88.51 20.02 88.51 19.28Q88.51 18.53 88.3 17.98Q88.09 17.43 87.68 17.12Q87.28 16.82 86.7 16.82Q86.09 16.82 85.69 17.14Q85.29 17.45 85.08 18.01Q84.88 18.57 84.88 19.28Q84.88 19.99 85.08 20.55Q85.29 21.12 85.69 21.44Q86.1 21.77 86.7 21.77ZM94.04 12.91V23.09H92.21V12.91ZM97.78 18.62V23.09H96.01V15.45H97.69L97.72 17.34H97.57Q97.89 16.35 98.52 15.85Q99.14 15.35 100.07 15.35Q100.86 15.35 101.45 15.69Q102.04 16.02 102.36 16.67Q102.69 17.31 102.69 18.23V23.09H100.91V18.51Q100.91 17.74 100.51 17.3Q100.12 16.87 99.42 16.87Q98.95 16.87 98.58 17.07Q98.21 17.28 98 17.67Q97.78 18.06 97.78 18.62Z"/></svg>
